PathFileType	4	(X/Y/Z)	C:/Users/beibeiliu/ov580/test_trc\sequence.34_training_dense_right.trc
DataRate	CameraRate	NumFrames	NumMarkers	Units	OrigDataRate	OrigDataStartFrame	OrigNumFrames
120	120	25	19	mm	120	86	142
Frame#	Time	ThumbCMC			ThumbMCP			ThumbIP			ThumbTip			IndexMCP			IndexPIP			IndexTip			MiddleMCP			MiddlePIP			MiddleTip			RingMCP			RingPIP			RingTip			PinkyMCP			PinkyPIP			PinkyTip			BackHand1			BackHand2			BackHand3	
		X0	Y0	Z0	X1	Y1	Z1	X2	Y2	Z2	X3	Y3	Z3	X4	Y4	Z4	X5	Y5	Z5	X6	Y6	Z6	X7	Y7	Z7	X8	Y8	Z8	X9	Y9	Z9	X10	Y10	Z10	X11	Y11	Z11	X12	Y12	Z12	X13	Y13	Z13	X14	Y14	Z14	X15	Y15	Z15	X16	Y16	Z16	X17	Y17	Z17	X18	Y18	Z18	
85	0.708333	134.758	121.663	24.5824	142.945	132.739	-0.663413	136.171	136.791	-23.6554	131.819	144.426	-43.2779	120.292	107.926	-35.0936	118.679	105.54	-59.4329	117.282	106.481	-84.0449	97.7396	103.155	-38.7525	90.0129	98.5938	-55.033	83.1066	87.5303	-80.1115	77.0723	111.841	-29.0794	75.6926	108.937	-46.7153	67.4246	104.008	-67.0539	67.5462	120.612	-16.3478	63.0303	121.101	-32.6577	64.2386	123.273	-55.4897	88.7135	106.753	14.0949	89.865	104.094	40.1737	110.763	100.963	22.3382	
86	0.716667	136.719	126.311	27.234	149.415	135.74	6.70446	152.123	136.816	-19.8516	153.212	143.16	-37.1123	125.253	118.381	-40.1295	123.798	124.219	-59.4839	119.909	134.879	-86.3502	102.209	106.303	-37.8372	99.1262	100.452	-59.1233	97.3369	90.5824	-82.7537	83.0431	105.839	-30.1605	83.3495	100.024	-49.3239	81.7866	92.5664	-69.1261	69.6431	113.304	-14.3041	65.5481	107.005	-31.885	61.9724	100.521	-47.3394	90.9219	106.931	10.5136	92.4624	99.7112	36.839	116.124	103.312	17.9294	
87	0.725	134.278	132.89	34.1891	148.707	140.558	10.3732	158.96	144.885	-10.5574	165.108	149.221	-28.7655	127.403	130.728	-38.3619	125.432	142.463	-57.1431	122.533	161.055	-74.9616	112.291	112.237	-41.0789	113.639	110.673	-59.8905	111.188	100.808	-81.2655	94.4787	104.765	-29.5853	93.089	97.1028	-48.6235	96.326	90.0075	-66.3596	73.876	105.595	-14.33	73.0921	98.7701	-30.5409	69.5679	85.8433	-45.6847	95.5394	103.394	11.5428	97.7217	100.608	33.8543	120.202	109.08	22.1637	
88	0.733333	124.572	143.377	42.7513	139.216	159.277	23.7371	147.278	164.567	4.48661	156.125	172.057	-11.7258	125.625	146.686	-30.3766	115.605	162.016	-51.8896	100.741	182.971	-59.8605	119.803	122.804	-38.139	123.5	125.209	-55.6998	131.902	122.656	-79.7872	110.523	111.08	-30.111	115.601	104.69	-49.312	121.525	95.8722	-67.6402	90.4696	101.728	-15.6974	92.5981	91.678	-32.5541	100.238	80.4125	-46.7867	106.238	107.546	8.40571	107.536	100.502	32.7662	125.735	118.024	24.7518	
89	0.741667	106.325	149.526	46.5063	110.533	169.767	34.7313	121.328	184.859	18.8615	125.09	195.202	9.11406	112.054	164.095	-19.634	97.0384	175.565	-36.289	67.7079	177.722	-44.9849	121.827	141.493	-28.1942	127.849	150.827	-49.0252	136.019	156.502	-72.0652	121.225	123.619	-24.3626	128.851	122.06	-40.701	142.677	125.817	-55.5707	107.22	101.252	-15.5697	116.24	101.914	-27.3732	129.565	95.9847	-36.3712	112.336	109.299	15.0319	112.135	101.496	35.8044	122.861	132.022	31.5267	
90	0.75	82.8731	148.914	53.6425	82.947	172.569	40.4574	88.7265	191.503	27.2078	87.4809	206.687	22.3058	88.5595	174.579	-12.8276	70.869	170.014	-30.132	44.8603	160.965	-32.4551	111.539	157.311	-19.6388	111.81	170.079	-40.0127	117.907	178.378	-60.1714	119.941	137.458	-16.2766	131.449	148.552	-34.0808	144.065	156.064	-47.0264	116.347	115.583	-9.79245	129.674	117.193	-21.4204	142.47	122.909	-26.8289	113.742	124.341	18.2958	112.088	112.431	45.7661	109.579	143.477	40.1747	
91	0.758333	67.5949	139.754	51.4142	58.1393	165.118	41.7834	55.6817	179.379	30.6926	50.0669	197.046	27.2527	70.2826	169.413	-12.0152	50.9751	158.06	-30.8544	37.2946	135.37	-30.2385	94.6407	169.112	-16.8139	92.5298	181.662	-38.9244	94.274	192.007	-58.1642	111.894	156.97	-11.0729	122.158	169.246	-26.2	126.798	182.628	-35.0197	121.077	130.096	-3.74491	132.274	142.776	-12.8381	142.533	151.746	-14.5101	109.868	136.075	22.6772	110.492	121.624	47.1722	92.2201	146.08	45.476	
92	0.766667	57.0481	135.269	46.6949	45.6368	151.719	35.3946	35.4948	170.202	27.2891	30.1284	184.187	19.322	55.8156	164.33	-15.2207	46.77	146.399	-36.9886	45.426	118.999	-34.1399	80.7585	172.868	-17.8366	74.8	181.96	-39.3421	79.2181	190.141	-59.5743	100.53	166.849	-10.0836	106.71	178.298	-21.2154	113.888	198.737	-34.3822	119.768	148.837	-0.783058	122.997	158.039	-5.8889	133.97	174.561	-6.04946	103.223	144.484	25.3887	106.153	130.081	49.2756	79.8179	146.655	42.6177	
93	0.775	53.8863	128.226	41.9762	35.6217	141.236	30.9023	26.3046	161.547	18.6046	12.7681	169.877	13.8939	51.9644	157.405	-20.9472	48.1359	139.394	-42.5041	57.4735	109.989	-36.9858	70.78	169.432	-20.2967	70.3319	176.86	-46.6268	66.8357	184.702	-68.214	94.0236	170.101	-13.6303	96.19	181.733	-25.263	95.5811	197.99	-35.0641	113.622	156.03	-0.632891	119.52	167.905	-4.70082	124.683	185.246	-4.26366	99.0843	150.255	23.0383	96.6089	134.777	49.6891	71.8896	149.64	37.9926	
94	0.783333	53.8456	120.603	39.3749	33.444	130.971	26.9767	19.2411	149.048	12.4769	7.99858	158.776	2.03562	52.2847	149.804	-27.7252	54.7715	128.941	-48.0563	60.8115	103.254	-38.3541	66.9199	164.648	-27.6904	64.3093	168.163	-52.4948	62.4771	173.696	-76.6772	90.0094	170.19	-17.6549	91.4191	180.468	-31.1745	90.9802	196.435	-41.9929	106.414	157.448	-2.3308	110.612	172.935	-8.19386	114.885	192.44	-5.50265	93.9573	150.973	20.7133	94.925	141.657	43.0256	65.6422	145.406	37.6537	
95	0.791667	51.252	120.551	36.5802	31.7703	127.336	23.7658	18.0867	142.457	5.40704	10.1387	148.245	-4.19868	49.7928	142.617	-29.4735	58.3875	121.295	-49.5614	67.4168	97.684	-36.9395	69.7671	158.49	-31.1955	64.1845	158.355	-56.2875	65.5075	159.563	-81.2981	86.6114	165.211	-21.0047	87.0244	175.504	-37.4899	86.2545	190.288	-51.4507	105.439	160.157	-5.39874	110.202	175.22	-12.1494	111.271	190.004	-11.5226	89.2882	152.869	19.6751	92.4688	145.08	42.685	66.958	146.779	29.793	
96	0.8	51.9873	121.931	35.5678	38.1075	128.4	17.3094	24.2061	136.009	3.16972	11.1367	142.349	-8.66288	53.2165	134.763	-33.2498	59.9833	112.711	-47.9447	76.404	91.5205	-34.8684	69.0842	149.79	-40.0637	72.1604	146.99	-62.0852	70.7546	140.724	-84.1798	92.4331	160.366	-25.5459	90.7844	171.511	-47.1628	85.4825	182.26	-62.1032	111.931	157.634	-6.08588	109.077	172.807	-18.0961	112.02	185.683	-14.6544	90.394	150.945	17.8786	90.7469	146.73	40.1501	67.0357	145.294	31.045	
97	0.808333	54.4341	121.131	34.4157	42.5553	125.661	16.7828	25.2041	131.414	1.95445	15.9575	137.355	-12.1963	61.9765	129.417	-33.9379	68.953	104.225	-44.33	79.8815	82.8337	-29.2251	74.8231	140.778	-42.2449	76.4096	130.571	-62.1731	82.2188	114.002	-84.638	96.8241	155.003	-32.3053	99.4662	160.489	-48.4812	98.4116	169.546	-67.4454	112.857	153.03	-9.63614	118.748	168.429	-19.2266	119.018	184.747	-19.4702	96.6003	150.274	13.4937	95.1131	148.472	38.5659	69.3585	145.293	26.7609	
98	0.816667	57.6265	120.501	37.2516	43.9412	121.519	18.2585	33.0292	129.055	-0.424989	17.156	133.921	-12.6724	67.3133	124.478	-33.1912	73.8841	99.5052	-42.9114	77.8362	72.8426	-29.4524	83.7852	132.69	-41.6394	85.4956	113.546	-61.9016	87.9073	91.4697	-71.5525	103.588	146.041	-30.3389	105.059	148.725	-50.5781	105.357	153.387	-70.2064	122.308	146.005	-8.19698	120.398	160.885	-23.3208	124.419	175.265	-26.7426	98.7235	146.067	14.9507	101.362	145.994	40.8657	72.4189	144.651	23.8652	
99	0.825	59.7349	124.578	35.8427	48.7955	123.132	15.8835	34.9684	131.036	-3.5571	19.7947	135.003	-12.9695	66.9974	119.428	-31.6724	69.1563	96.0008	-41.1013	74.7113	67.5014	-31.5173	85.0645	122.166	-40.075	87.6537	99.9701	-53.1961	86.7754	70.4963	-53.8523	108.384	134.412	-33.7651	113.341	132.649	-54.5809	115.197	132.337	-74.0459	127.939	138.19	-11.3763	133.148	146.463	-23.6266	133.811	162.295	-30.2376	105.955	141.411	11.0923	108.299	144.336	38.8777	79.0546	143.427	24.284	
100	0.833333	65.0148	128.63	35.4332	49.6833	128.711	15.974	38.6012	133.006	-1.86777	29.4997	140.213	-16.3658	73.0723	115.342	-31.7716	67.6987	89.7822	-40.6982	67.7791	66.7989	-35.4739	90.5321	111.248	-36.245	87.0542	85.0665	-46.7902	80.8001	59.2735	-41.5988	114.093	118.789	-31.8931	114.827	110.493	-53.4715	116.35	101.04	-75.5198	130.48	121.351	-11.105	135.706	126.248	-25.421	147.732	137.727	-34.3905	109.409	134.888	11.9279	114.719	139.259	36.4276	87.4622	145.005	21.9968	
101	0.841667	69.2	134.046	29.6977	58.589	132.106	10.34	44.7721	140	-8.48196	34.7414	143.437	-14.2119	72.5274	109.296	-33.7308	66.444	87.8982	-39.5983	61.8889	60.7787	-36.5918	93.2746	99.887	-36.6216	84.6315	78.8901	-43.2731	73.0919	49.3896	-39.6968	114.265	102.433	-32.7908	114.018	86.1068	-48.8459	109.76	70.2532	-64.8688	132.484	105.063	-11.4651	143.236	104.033	-28.1547	155.459	110.371	-38.9777	118.012	126.591	12.9147	117.94	133.542	36.0508	97.4611	141.046	18.0514	
102	0.85	80.3325	131.648	27.9454	64.3336	133.772	9.72771	52.7518	139.886	-11.6437	45.1836	141.852	-19.3878	79.1983	103.53	-33.5455	69.7989	82.5112	-40.4618	59.7904	58.1367	-40.1557	97.4081	91.0021	-35.4735	86.1886	67.1497	-43.7059	73.4735	39.5579	-42.7071	117.053	85.0715	-27.8758	108.765	66.2093	-41.3391	97.708	46.7582	-49.2274	138.115	88.0173	-14.1285	145.399	80.0815	-27.2857	155.741	74.469	-41.4196	124.114	117.213	4.92096	128.054	127.079	33.4842	106.804	134.345	14.6921	
103	0.858333	89.9804	130.129	24.299	77.6427	130.795	4.73865	69.1987	134.647	-15.9102	59.7072	143.346	-30.6503	85.1678	89.7755	-37.7791	68.3802	72.9246	-44.7235	53.5381	53.3287	-45.8977	101.23	75.3398	-35.5396	83.4032	57.1083	-44.4257	68.2725	36.1477	-47.026	112.852	65.4428	-28.122	100.695	47.1018	-31.866	82.7837	30.4989	-29.6731	138.786	63.4781	-13.7284	138.647	52.6879	-26.3853	139.726	37.4196	-40.2439	133.555	100.688	2.82809	136.39	115.046	27.0982	114.15	126.006	8.77442	
104	0.866667	108.948	115.435	19.1924	95.7486	125.147	-4.04464	89.4879	124.53	-25.0036	82.548	130.702	-37.4313	88.7459	81.3187	-40.4729	69.4801	65.7917	-50.0348	54.0517	47.6585	-51.8161	96.1641	59.9629	-39.0212	80.9393	42.5567	-43.3384	61.0843	24.6164	-45.0645	107.327	43.824	-23.6533	84.1231	32.0534	-23.7396	65.1411	22.8918	-9.63152	129.216	37.978	-10.8805	119.218	21.688	-19.965	102.905	6.41667	-30.6911	140.433	78.9331	1.48469	147.774	91.1259	23.565	129.632	102.549	4.93119	
105	0.875	128.481	95.6497	10.7048	119.036	105.605	-11.7732	112.423	107.259	-35.2029	108.797	111.595	-49.6975	91.5563	63.3732	-43.6731	71.6257	57.3501	-51.2216	50.7994	48.8149	-55.6463	91.7543	40.8031	-36.5843	72.2807	32.5564	-40.3301	44.1526	23.5924	-40.8375	91.7252	27.4493	-21.1192	67.7335	25.828	-16.6579	49.9884	28.3746	-4.60792	110.031	13.0926	-7.35398	89.7423	3.98313	-14.0805	72.2392	-2.31516	-16.9109	138.181	45.9777	-2.60338	153.041	59.6273	17.0379	137.92	75.4703	-3.35404	
106	0.883333	143.356	69.2842	4.76683	139.341	75.6926	-17.8846	133.774	74.748	-42.0911	132.18	79.3823	-54.2965	91.9615	44.1	-44.1356	73.6389	45.6942	-52.232	48.2975	48.2324	-60.0946	81.0455	25.5721	-34.652	58.0591	27.3728	-40.6226	29.1422	31.7108	-42.2904	77.9865	16.7601	-19.4523	56.6353	23.8287	-17.139	39.1858	37.0968	-10.0528	87.6062	-1.23845	0.741866	64.5109	-4.46635	-4.66923	49.1289	-7.05021	-8.30531	126.997	12.1507	0.35077	146.083	20.3194	20.318	140.203	40.1939	-6.03141	
107	0.891667	143.518	40.9022	5.00341	140.431	42.198	-18.9962	141.697	40.2092	-43.5827	148.551	43.2098	-58.2312	92.6461	32.1312	-48.6676	75.5634	42.1969	-63.0021	53.0401	51.722	-72.5978	72.0439	22.2839	-40.2166	54.3493	31.6456	-48.5051	30.9585	39.9006	-53.3381	64.6713	16.3943	-21.3818	41.9121	29.456	-24.5143	32.083	48.0276	-26.7477	60.8685	0.320026	1.69933	47.201	0.792052	-4.59133	28.3945	-0.761904	-14.5578	103.701	-1.16129	6.14303	123.422	0.880156	21.8235	129.983	15.1627	-1.14982	
108	0.9	130.728	22.9825	9.07812	137.089	21.2821	-18.1489	143.749	17.9392	-38.866	146.92	14.9891	-54.6033	88.5142	16.74	-48.9383	74.6728	25.6131	-70.5878	61.8916	36.7549	-87.4697	69.1888	14.9417	-41.1961	49.6567	24.0707	-56.2948	35.2155	37.9903	-73.5123	51.4995	19.496	-27.9636	36.4656	33.9345	-37.3556	27.6959	54.8987	-46.7374	41.5719	10.9186	-2.82031	31.7254	12.3807	-9.92896	13.1706	7.25032	-16.3236	81.4247	-0.507382	11.3042	100.263	-2.86518	27.7106	112.168	0.849275	4.10124	
109	0.908333	120.183	18.0965	11.6812	126.241	18.5485	-10.4827	133.316	13.1759	-35.4264	138.406	10.543	-51.5929	83.8284	6.25887	-45.1043	74.5132	8.55655	-66.8545	62.3453	11.8795	-91.621	55.5733	9.70174	-43.6248	48.8815	14.9626	-63.8007	32.2636	22.1719	-81.9518	41.0957	19.8153	-28.4936	31.5691	31.315	-44.1041	27.7346	50.0485	-59.9755	32.1767	17.7775	-5.67044	16.9132	19.9055	-13.1752	2.45533	15.4433	-21.0904	66.1863	5.20723	12.9104	77.5626	2.73004	35.0493	94.9087	2.56643	12.2813	
